HIERARCHY
ROOT Hips
{
	OFFSET -0.001795 -0.223333 0.028219
	CHANNELS 6 Xposition Yposition Zposition Zrotation Yrotation Xrotation 
	JOINT LeftUpLeg
	{
		OFFSET 0.069520 -0.091406 -0.006815
		CHANNELS 3 Zrotation Yrotation Xrotation
		JOINT LeftLeg
		{
			OFFSET 0.034277 -0.375199 -0.004496
			CHANNELS 3 Zrotation Yrotation Xrotation
			JOINT LeftFoot
			{
				OFFSET -0.013596 -0.397961 -0.043693
				CHANNELS 3 Zrotation Yrotation Xrotation
				JOINT LeftToe
				{
					OFFSET 0.026358 -0.055791 0.119288
					CHANNELS 3 Zrotation Yrotation Xrotation
					End Site
					{
						OFFSET 0.000000 0.000000 0.000000
					}
				}
			}
		}
	}
	JOINT RightUpLeg
	{
		OFFSET -0.067670 -0.090522 -0.004320
		CHANNELS 3 Zrotation Yrotation Xrotation
		JOINT RightLeg
		{
			OFFSET -0.038290 -0.382569 -0.008850
			CHANNELS 3 Zrotation Yrotation Xrotation
			JOINT RightFoot
			{
				OFFSET 0.015774 -0.398415 -0.042312
				CHANNELS 3 Zrotation Yrotation Xrotation
				JOINT RightToe
				{
					OFFSET -0.025372 -0.048144 0.123348
					CHANNELS 3 Zrotation Yrotation Xrotation
					End Site
					{
						OFFSET 0.000000 0.000000 0.000000
					}
				}
			}
		}
	}
	JOINT Spine
	{
		OFFSET -0.002533 0.108963 -0.026696
		CHANNELS 3 Zrotation Yrotation Xrotation
		JOINT Spine1
		{
			OFFSET 0.005487 0.135180 0.001092
			CHANNELS 3 Zrotation Yrotation Xrotation
			JOINT Spine2
			{
				OFFSET 0.001457 0.052922 0.025425
				CHANNELS 3 Zrotation Yrotation Xrotation
				JOINT Neck
				{
					OFFSET -0.002778 0.213870 -0.042857
					CHANNELS 3 Zrotation Yrotation Xrotation
					JOINT Head
					{
						OFFSET 0.005152 0.064970 0.051349
						CHANNELS 3 Zrotation Yrotation Xrotation
						End Site
						{
							OFFSET 0.000000 0.000000 0.000000
						}
					}
				}
				JOINT LeftShoulder
				{
					OFFSET 0.078845 0.121749 -0.034090
					CHANNELS 3 Zrotation Yrotation Xrotation
					JOINT LeftArm
					{
						OFFSET 0.090977 0.030469 -0.008868
						CHANNELS 3 Zrotation Yrotation Xrotation
						JOINT LeftForeArm
						{
							OFFSET 0.259612 -0.012772 -0.027456
							CHANNELS 3 Zrotation Yrotation Xrotation
							JOINT LeftHand
							{
								OFFSET 0.249234 0.008986 -0.001171
								CHANNELS 3 Zrotation Yrotation Xrotation
								End Site
								{
									OFFSET 0.000000 0.000000 0.000000
								}
							}
						}
					}
				}
				JOINT RightShoulder
				{
					OFFSET -0.081759 0.118833 -0.038615
					CHANNELS 3 Zrotation Yrotation Xrotation
					JOINT RightArm
					{
						OFFSET -0.096012 0.032551 -0.009143
						CHANNELS 3 Zrotation Yrotation Xrotation
						JOINT RightForeArm
						{
							OFFSET -0.253742 -0.013329 -0.021401
							CHANNELS 3 Zrotation Yrotation Xrotation
							JOINT RightHand
							{
								OFFSET -0.255298 0.007772 -0.005559
								CHANNELS 3 Zrotation Yrotation Xrotation
								End Site
								{
									OFFSET 0.000000 0.000000 0.000000
								}
							}
						}
					}
				}
			}
		}
	}
}
MOTION
Frames: 15
Frame Time: 0.050000
0.594825 0.940996 0.680172 -172.619280 21.124601 -173.374256 14.505721 -10.309639 -14.966884 -7.422305 -7.128153 13.692528 53.277339 -26.096402 31.766596 0.000000 0.000000 0.000000 9.272268 -7.422717 -20.793709 -10.182146 -9.869127 15.995762 37.052663 -5.219076 11.580664 0.000000 0.000000 0.000000 -18.757252 -11.637635 25.915241 -33.362440 -26.627473 -6.555534 17.195547 36.442503 18.819191 -22.758897 -24.479516 -11.541964 0.000000 0.000000 0.000000 2.989277 -30.984682 -42.542342 -14.928264 14.594810 -1.170422 -9.361506 -25.282614 -1.653715 0.000000 0.000000 0.000000 18.203484 -14.089402 41.961569 49.616172 39.374401 11.539801 -6.461453 44.653869 -3.982768 0.000000 0.000000 0.000000 
0.592240 0.941106 0.675999 -172.677038 21.336791 -173.622425 14.212684 -10.074552 -14.617168 -7.832167 -7.342981 13.932378 53.476486 -25.868294 31.838085 0.000000 0.000000 0.000000 8.446948 -7.409705 -20.181849 -9.429865 -10.097184 15.847054 37.287650 -5.240288 11.489880 0.000000 0.000000 0.000000 -18.714469 -11.587588 25.846682 -34.985580 -27.632709 -4.920291 18.058622 37.527279 18.335842 -21.769256 -22.876275 -11.748254 0.000000 0.000000 0.000000 1.891908 -31.191834 -41.606480 -14.311979 13.291803 -0.749496 -6.349369 -23.348837 -1.851415 0.000000 0.000000 0.000000 19.295134 -13.430214 41.630402 49.797211 37.536584 9.593027 -6.454115 44.759475 -4.187330 0.000000 0.000000 0.000000 
0.591326 0.940575 0.672204 -172.499641 21.790176 -173.487179 14.279444 -10.037015 -14.038506 -7.939831 -7.218519 13.382420 54.260040 -25.858759 31.773344 0.000000 0.000000 0.000000 8.156832 -7.337198 -19.875227 -8.860587 -10.146070 15.623005 37.438998 -4.995594 11.423601 0.000000 0.000000 0.000000 -18.800243 -11.518279 25.741690 -34.990450 -27.442884 -4.810302 17.796609 37.768976 18.094291 -21.456013 -22.275710 -11.965459 0.000000 0.000000 0.000000 1.434465 -31.767873 -40.924398 -13.414510 12.016880 -0.369735 -4.455946 -21.123960 -1.871232 0.000000 0.000000 0.000000 20.053183 -13.499048 41.449383 49.402353 36.021556 7.958262 -4.309687 45.723027 -3.340869 0.000000 0.000000 0.000000 
0.591735 0.941324 0.668753 -172.251246 22.202172 -173.535551 14.857435 -10.345837 -13.562428 -8.910229 -7.432138 13.225021 53.769545 -25.119050 32.833463 0.000000 0.000000 0.000000 7.735403 -7.253910 -19.549139 -8.151138 -10.760766 15.918350 37.571349 -4.639461 11.963476 0.000000 0.000000 0.000000 -18.770507 -11.362814 25.422725 -35.615843 -27.496177 -3.611453 17.985264 37.867961 17.518032 -20.878851 -20.908944 -12.133617 0.000000 0.000000 0.000000 0.229261 -31.590518 -40.468455 -12.957246 10.984127 -0.072089 -2.485445 -19.690741 -1.930573 0.000000 0.000000 0.000000 20.780808 -13.259497 40.415791 48.903083 34.437941 6.483378 -2.691570 46.871769 -2.600328 0.000000 0.000000 0.000000 
0.593121 0.941592 0.665191 -172.065199 22.239095 -173.510632 15.314358 -10.660182 -12.843875 -9.349632 -7.396697 12.390860 53.869560 -24.895722 33.040316 0.000000 0.000000 0.000000 7.511234 -6.805808 -18.725048 -7.315245 -10.580263 15.103587 37.208971 -5.064454 11.449799 0.000000 0.000000 0.000000 -18.466499 -11.188957 25.225719 -35.177746 -26.997345 -3.365009 17.364606 37.138846 16.932828 -20.112633 -20.086528 -12.822390 0.000000 0.000000 0.000000 -0.213482 -31.479532 -40.377729 -13.256098 10.663168 -0.040914 -1.143601 -18.466668 -2.038520 0.000000 0.000000 0.000000 20.820990 -13.141083 40.020879 49.607315 33.398581 6.123098 -1.285956 47.587417 -1.946010 0.000000 0.000000 0.000000 
0.594606 0.942578 0.661110 -171.883470 22.247840 -173.571513 15.771051 -11.020030 -11.959600 -9.836214 -7.393230 11.436796 53.517910 -24.473336 33.388758 0.000000 0.000000 0.000000 7.034824 -6.812866 -18.320646 -6.558514 -11.341241 15.362410 37.367821 -4.858483 11.866044 0.000000 0.000000 0.000000 -18.555194 -11.137124 25.004216 -34.440332 -26.353880 -3.458217 17.131922 36.472369 16.866232 -18.551486 -19.174290 -13.852536 0.000000 0.000000 0.000000 -0.272910 -31.140170 -40.732848 -13.990443 11.166783 -0.205949 -0.640029 -17.899325 -2.116794 0.000000 0.000000 0.000000 20.321706 -13.277167 39.410764 49.740083 32.973089 6.455976 0.598995 48.127924 -0.754125 0.000000 0.000000 0.000000 
0.595761 0.943145 0.656673 -171.904666 22.730263 -173.784032 15.756811 -11.033529 -10.916760 -10.144625 -7.384062 10.696870 53.230314 -23.894443 33.707940 0.000000 0.000000 0.000000 6.567458 -6.666341 -17.730069 -6.084774 -11.606255 15.348895 37.633076 -4.659530 12.009799 0.000000 0.000000 0.000000 -18.072735 -10.766387 24.586324 -34.148670 -25.874604 -3.290362 16.830083 35.806706 16.463729 -17.606361 -18.187376 -13.958780 0.000000 0.000000 0.000000 -0.844015 -30.244118 -40.986194 -15.046383 12.111289 -0.455204 -1.462121 -18.692002 -2.059336 0.000000 0.000000 0.000000 20.398497 -13.438942 38.328416 48.752948 32.130817 5.933756 1.703768 49.149462 0.255353 0.000000 0.000000 0.000000 
0.596255 0.942392 0.652174 -172.189944 22.709383 -174.273429 15.159370 -10.762255 -9.698686 -9.817986 -7.214496 9.871138 53.909219 -24.000951 32.746118 0.000000 0.000000 0.000000 5.744044 -6.614510 -16.766835 -5.429363 -11.836206 15.013753 38.372390 -4.840038 11.268119 0.000000 0.000000 0.000000 -17.398611 -10.425314 24.261494 -34.122292 -25.759756 -2.475643 16.642573 35.631960 15.994063 -16.609128 -17.653992 -13.879858 0.000000 0.000000 0.000000 -1.138699 -30.475990 -41.022799 -16.375866 13.334861 -0.782788 -2.230294 -19.138302 -2.020521 0.000000 0.000000 0.000000 19.733692 -13.205734 37.714410 49.077512 32.011939 6.611134 0.252696 49.709957 0.090889 0.000000 0.000000 0.000000 
0.596361 0.941761 0.648498 -172.801325 23.481693 -174.782506 14.034662 -10.057496 -8.267930 -9.258918 -6.932424 8.800588 54.250839 -23.796684 32.007641 0.000000 0.000000 0.000000 5.072808 -6.711662 -16.313426 -5.588877 -11.641056 15.075565 39.354065 -4.513830 10.925829 0.000000 0.000000 0.000000 -17.062003 -10.074189 23.821170 -33.261347 -24.803522 -2.027440 15.519477 34.657426 14.837118 -15.025754 -15.955343 -13.526908 0.000000 0.000000 0.000000 -2.030882 -29.707112 -40.311510 -18.076520 14.232221 -1.116152 -3.240609 -20.506328 -1.990603 0.000000 0.000000 0.000000 19.415997 -13.134012 35.364746 48.058007 30.390051 6.051160 2.109709 50.238689 1.682770 0.000000 0.000000 0.000000 
0.596409 0.940958 0.646016 -172.983474 23.198746 -175.270407 13.565502 -9.926694 -7.321174 -8.820386 -6.735411 8.164816 54.866967 -23.974544 30.997122 0.000000 0.000000 0.000000 4.574316 -6.665980 -15.600671 -5.318136 -11.873223 15.000289 39.994261 -4.758538 10.231165 0.000000 0.000000 0.000000 -16.139959 -9.821069 23.783650 -32.609323 -24.355372 -1.424865 14.772978 33.453094 14.494532 -13.798402 -14.886963 -14.100660 0.000000 0.000000 0.000000 -2.214984 -29.674561 -40.089192 -19.704557 15.065308 -1.488841 -3.930291 -21.327063 -2.030411 0.000000 0.000000 0.000000 18.737238 -12.903566 34.396530 47.586587 30.526607 6.598858 1.669129 50.277591 1.900517 0.000000 0.000000 0.000000 
0.596840 0.940385 0.644956 -173.380488 23.149863 -175.507034 13.026645 -9.666576 -6.652524 -8.455555 -6.594422 7.315034 55.180286 -24.148196 30.308783 0.000000 0.000000 0.000000 4.069818 -6.748429 -15.102960 -4.910476 -11.592147 14.401298 40.307770 -4.962012 9.559335 0.000000 0.000000 0.000000 -15.731991 -9.753881 23.890130 -32.177300 -24.101383 -1.119733 14.766979 32.836897 14.171083 -12.721489 -14.154629 -13.940208 0.000000 0.000000 0.000000 -2.719052 -29.648544 -40.295301 -20.789450 15.285111 -1.582731 -4.885421 -22.331623 -1.916801 0.000000 0.000000 0.000000 18.071462 -12.728676 33.158428 47.563295 29.909936 6.893262 2.283246 50.446811 2.654951 0.000000 0.000000 0.000000 
0.598048 0.939868 0.644966 -173.692519 22.421787 -175.365606 12.925583 -9.663143 -6.727880 -8.334181 -6.630774 6.648383 55.557440 -24.733948 29.610414 0.000000 0.000000 0.000000 3.537261 -7.168333 -15.001632 -4.154959 -11.733493 13.885038 40.492120 -5.160232 9.035705 0.000000 0.000000 0.000000 -15.303526 -9.752153 23.978586 -30.292176 -23.002403 -1.411934 13.350657 30.753533 13.914535 -11.713309 -13.855582 -14.047218 0.000000 0.000000 0.000000 -2.693350 -30.072505 -40.668137 -21.166203 14.915481 -1.449031 -5.002155 -22.630865 -1.913493 0.000000 0.000000 0.000000 17.587121 -12.593358 33.288889 46.700249 31.210567 7.443046 1.931016 49.441769 2.472554 0.000000 0.000000 0.000000 
0.599912 0.939411 0.645453 -173.996861 22.165269 -175.310493 12.745630 -9.555456 -6.752059 -8.160764 -6.614771 6.293068 55.703065 -25.035554 29.231190 0.000000 0.000000 0.000000 3.427850 -7.263049 -14.954697 -4.032257 -11.444260 13.479195 40.614676 -5.363673 8.411018 0.000000 0.000000 0.000000 -14.800626 -9.696607 24.188866 -29.619540 -22.790847 -1.583593 13.236798 30.010274 13.497150 -11.715482 -14.009553 -13.573321 0.000000 0.000000 0.000000 -2.925858 -30.456834 -40.965552 -21.408045 14.429582 -1.235181 -4.605622 -23.779507 -2.113398 0.000000 0.000000 0.000000 17.920895 -12.565134 33.413184 45.895754 31.519390 7.090415 2.667087 49.232779 2.748277 0.000000 0.000000 0.000000 
0.602220 0.938606 0.645670 -174.331853 21.839867 -175.244166 12.672511 -9.543850 -6.803199 -8.204019 -6.702126 5.920565 55.998479 -25.360275 28.943415 0.000000 0.000000 0.000000 3.126036 -7.480379 -14.886303 -3.652752 -11.403022 13.114629 40.993966 -5.439367 7.772538 0.000000 0.000000 0.000000 -14.226506 -9.429526 23.904191 -29.215421 -22.731084 -1.009656 12.708866 29.608887 12.965401 -11.066971 -14.051705 -13.156750 0.000000 0.000000 0.000000 -2.734960 -31.269320 -40.710361 -21.906930 13.628241 -1.062621 -3.605820 -24.705141 -2.557394 0.000000 0.000000 0.000000 17.976759 -12.638337 33.588370 45.237711 32.354873 7.162018 2.643669 48.109827 2.631627 0.000000 0.000000 0.000000 
0.604443 0.938285 0.645376 -174.515399 21.776214 -175.489679 12.477963 -9.449300 -6.579395 -8.010994 -6.616364 6.015272 55.960989 -25.336134 28.660734 0.000000 0.000000 0.000000 2.971709 -7.583824 -14.825005 -3.745625 -11.765541 13.560687 41.627812 -5.248857 7.623993 0.000000 0.000000 0.000000 -13.496954 -9.422345 24.205413 -28.701617 -22.389494 -1.201403 12.270398 29.525452 12.684124 -11.124023 -14.762265 -12.060727 0.000000 0.000000 0.000000 -2.620099 -32.289923 -40.606308 -22.612017 13.187894 -0.936807 -2.254846 -26.140943 -3.179190 0.000000 0.000000 0.000000 17.902954 -12.552458 33.949563 45.212257 33.220958 7.541421 2.267812 47.002355 2.186906 0.000000 0.000000 0.000000 
